<svg width="2000" height="4000" xmlns="http://www.w3.org/2000/svg"><style>
            .header { fill: #2c3e50; stroke: #000; stroke-width: 2; }
            .empty { fill: #ecf0f1; stroke: #bdc3c7; stroke-width: 1; }
            .granule { stroke: #e74c3c; stroke-width: 2; fill: none; stroke-dasharray: 3,3; }
            .text { font-family: Arial, sans-serif; font-size: 6px; text-anchor: middle; }
            .title { font-family: Arial, sans-serif; font-size: 18px; font-weight: bold; text-anchor: middle; }
            .legend { font-family: Arial, sans-serif; font-size: 12px; }
            .granule-text { font-family: Arial, sans-serif; font-size: 8px; text-anchor: middle; fill: #e74c3c; font-weight: bold; }
        
            .granule0 { fill: #3498db; stroke: #000; stroke-width: 1; opacity: 0.7; }
            .granule1 { fill: #9b59b6; stroke: #000; stroke-width: 1; opacity: 0.7; }
            .granule2 { fill: #e67e22; stroke: #000; stroke-width: 1; opacity: 0.7; }
            .granule3 { fill: #1abc9c; stroke: #000; stroke-width: 1; opacity: 0.7; }
            .granule4 { fill: #f39c12; stroke: #000; stroke-width: 1; opacity: 0.7; }
            .granule5 { fill: #34495e; stroke: #000; stroke-width: 1; opacity: 0.7; }
            .granule6 { fill: #e74c3c; stroke: #000; stroke-width: 1; opacity: 0.7; }
            .granule7 { fill: #95a5a6; stroke: #000; stroke-width: 1; opacity: 0.7; }</style><text x="1000" y="30" class="title">Flit Structure with Granules (256 bytes)</text><rect x="50" y="60" width="24" height="19" class="header" /><text x="62" y="68" class="text">0</text><text x="62" y="75" class="text">H</text><rect x="75" y="60" width="24" height="19" class="header" /><text x="87" y="68" class="text">1</text><text x="87" y="75" class="text">H</text><rect x="100" y="60" width="24" height="19" class="granule0" /><text x="112" y="68" class="text">2</text><text x="112" y="75" class="granule-text">0</text><rect x="125" y="60" width="24" height="19" class="granule0" /><text x="137" y="68" class="text">3</text><text x="137" y="75" class="granule-text">0</text><rect x="150" y="60" width="24" height="19" class="granule0" /><text x="162" y="68" class="text">4</text><text x="162" y="75" class="granule-text">0</text><rect x="175" y="60" width="24" height="19" class="granule0" /><text x="187" y="68" class="text">5</text><text x="187" y="75" class="granule-text">0</text><rect x="200" y="60" width="24" height="19" class="granule0" /><text x="212" y="68" class="text">6</text><text x="212" y="75" class="granule-text">0</text><rect x="225" y="60" width="24" height="19" class="granule0" /><text x="237" y="68" class="text">7</text><text x="237" y="75" class="granule-text">0</text><rect x="250" y="60" width="24" height="19" class="granule0" /><text x="262" y="68" class="text">8</text><text x="262" y="75" class="granule-text">0</text><rect x="275" y="60" width="24" height="19" class="granule0" /><text x="287" y="68" class="text">9</text><text x="287" y="75" class="granule-text">0</text><rect x="300" y="60" width="24" height="19" class="granule0" /><text x="312" y="68" class="text">10</text><text x="312" y="75" class="granule-text">0</text><rect x="325" y="60" width="24" height="19" class="granule0" /><text x="337" y="68" class="text">11</text><text x="337" y="75" class="granule-text">0</text><rect x="350" y="60" width="24" height="19" class="granule0" /><text x="362" y="68" class="text">12</text><text x="362" y="75" class="granule-text">0</text><rect x="375" y="60" width="24" height="19" class="granule0" /><text x="387" y="68" class="text">13</text><text x="387" y="75" class="granule-text">0</text><rect x="400" y="60" width="24" height="19" class="granule0" /><text x="412" y="68" class="text">14</text><text x="412" y="75" class="granule-text">0</text><rect x="425" y="60" width="24" height="19" class="granule0" /><text x="437" y="68" class="text">15</text><text x="437" y="75" class="granule-text">0</text><rect x="450" y="60" width="24" height="19" class="granule0" /><text x="462" y="68" class="text">16</text><text x="462" y="75" class="granule-text">0</text><rect x="475" y="60" width="24" height="19" class="granule0" /><text x="487" y="68" class="text">17</text><text x="487" y="75" class="granule-text">0</text><rect x="500" y="60" width="24" height="19" class="granule0" /><text x="512" y="68" class="text">18</text><text x="512" y="75" class="granule-text">0</text><rect x="525" y="60" width="24" height="19" class="granule0" /><text x="537" y="68" class="text">19</text><text x="537" y="75" class="granule-text">0</text><rect x="550" y="60" width="24" height="19" class="granule0" /><text x="562" y="68" class="text">20</text><text x="562" y="75" class="granule-text">0</text><rect x="575" y="60" width="24" height="19" class="granule0" /><text x="587" y="68" class="text">21</text><text x="587" y="75" class="granule-text">0</text><rect x="600" y="60" width="24" height="19" class="granule1" /><text x="612" y="68" class="text">22</text><text x="612" y="75" class="granule-text">1</text><rect x="625" y="60" width="24" height="19" class="granule1" /><text x="637" y="68" class="text">23</text><text x="637" y="75" class="granule-text">1</text><rect x="650" y="60" width="24" height="19" class="granule1" /><text x="662" y="68" class="text">24</text><text x="662" y="75" class="granule-text">1</text><rect x="675" y="60" width="24" height="19" class="granule1" /><text x="687" y="68" class="text">25</text><text x="687" y="75" class="granule-text">1</text><rect x="700" y="60" width="24" height="19" class="granule1" /><text x="712" y="68" class="text">26</text><text x="712" y="75" class="granule-text">1</text><rect x="725" y="60" width="24" height="19" class="granule1" /><text x="737" y="68" class="text">27</text><text x="737" y="75" class="granule-text">1</text><rect x="750" y="60" width="24" height="19" class="granule1" /><text x="762" y="68" class="text">28</text><text x="762" y="75" class="granule-text">1</text><rect x="775" y="60" width="24" height="19" class="granule1" /><text x="787" y="68" class="text">29</text><text x="787" y="75" class="granule-text">1</text><rect x="800" y="60" width="24" height="19" class="granule1" /><text x="812" y="68" class="text">30</text><text x="812" y="75" class="granule-text">1</text><rect x="825" y="60" width="24" height="19" class="granule1" /><text x="837" y="68" class="text">31</text><text x="837" y="75" class="granule-text">1</text><rect x="850" y="60" width="24" height="19" class="granule1" /><text x="862" y="68" class="text">32</text><text x="862" y="75" class="granule-text">1</text><rect x="875" y="60" width="24" height="19" class="granule1" /><text x="887" y="68" class="text">33</text><text x="887" y="75" class="granule-text">1</text><rect x="900" y="60" width="24" height="19" class="granule1" /><text x="912" y="68" class="text">34</text><text x="912" y="75" class="granule-text">1</text><rect x="925" y="60" width="24" height="19" class="granule1" /><text x="937" y="68" class="text">35</text><text x="937" y="75" class="granule-text">1</text><rect x="950" y="60" width="24" height="19" class="granule1" /><text x="962" y="68" class="text">36</text><text x="962" y="75" class="granule-text">1</text><rect x="975" y="60" width="24" height="19" class="granule1" /><text x="987" y="68" class="text">37</text><text x="987" y="75" class="granule-text">1</text><rect x="1000" y="60" width="24" height="19" class="granule1" /><text x="1012" y="68" class="text">38</text><text x="1012" y="75" class="granule-text">1</text><rect x="1025" y="60" width="24" height="19" class="granule1" /><text x="1037" y="68" class="text">39</text><text x="1037" y="75" class="granule-text">1</text><rect x="1050" y="60" width="24" height="19" class="granule1" /><text x="1062" y="68" class="text">40</text><text x="1062" y="75" class="granule-text">1</text><rect x="1075" y="60" width="24" height="19" class="granule1" /><text x="1087" y="68" class="text">41</text><text x="1087" y="75" class="granule-text">1</text><rect x="1100" y="60" width="24" height="19" class="granule2" /><text x="1112" y="68" class="text">42</text><text x="1112" y="75" class="granule-text">2</text><rect x="1125" y="60" width="24" height="19" class="granule2" /><text x="1137" y="68" class="text">43</text><text x="1137" y="75" class="granule-text">2</text><rect x="1150" y="60" width="24" height="19" class="granule2" /><text x="1162" y="68" class="text">44</text><text x="1162" y="75" class="granule-text">2</text><rect x="1175" y="60" width="24" height="19" class="granule2" /><text x="1187" y="68" class="text">45</text><text x="1187" y="75" class="granule-text">2</text><rect x="1200" y="60" width="24" height="19" class="granule2" /><text x="1212" y="68" class="text">46</text><text x="1212" y="75" class="granule-text">2</text><rect x="1225" y="60" width="24" height="19" class="granule2" /><text x="1237" y="68" class="text">47</text><text x="1237" y="75" class="granule-text">2</text><rect x="1250" y="60" width="24" height="19" class="granule2" /><text x="1262" y="68" class="text">48</text><text x="1262" y="75" class="granule-text">2</text><rect x="1275" y="60" width="24" height="19" class="granule2" /><text x="1287" y="68" class="text">49</text><text x="1287" y="75" class="granule-text">2</text><rect x="1300" y="60" width="24" height="19" class="granule2" /><text x="1312" y="68" class="text">50</text><text x="1312" y="75" class="granule-text">2</text><rect x="1325" y="60" width="24" height="19" class="granule2" /><text x="1337" y="68" class="text">51</text><text x="1337" y="75" class="granule-text">2</text><rect x="1350" y="60" width="24" height="19" class="granule2" /><text x="1362" y="68" class="text">52</text><text x="1362" y="75" class="granule-text">2</text><rect x="1375" y="60" width="24" height="19" class="granule2" /><text x="1387" y="68" class="text">53</text><text x="1387" y="75" class="granule-text">2</text><rect x="1400" y="60" width="24" height="19" class="granule2" /><text x="1412" y="68" class="text">54</text><text x="1412" y="75" class="granule-text">2</text><rect x="1425" y="60" width="24" height="19" class="granule2" /><text x="1437" y="68" class="text">55</text><text x="1437" y="75" class="granule-text">2</text><rect x="1450" y="60" width="24" height="19" class="granule2" /><text x="1462" y="68" class="text">56</text><text x="1462" y="75" class="granule-text">2</text><rect x="1475" y="60" width="24" height="19" class="granule2" /><text x="1487" y="68" class="text">57</text><text x="1487" y="75" class="granule-text">2</text><rect x="1500" y="60" width="24" height="19" class="granule2" /><text x="1512" y="68" class="text">58</text><text x="1512" y="75" class="granule-text">2</text><rect x="1525" y="60" width="24" height="19" class="granule2" /><text x="1537" y="68" class="text">59</text><text x="1537" y="75" class="granule-text">2</text><rect x="1550" y="60" width="24" height="19" class="granule2" /><text x="1562" y="68" class="text">60</text><text x="1562" y="75" class="granule-text">2</text><rect x="1575" y="60" width="24" height="19" class="granule2" /><text x="1587" y="68" class="text">61</text><text x="1587" y="75" class="granule-text">2</text><rect x="1600" y="60" width="24" height="19" class="header" /><text x="1612" y="68" class="text">62</text><text x="1612" y="75" class="text">H</text><rect x="1625" y="60" width="24" height="19" class="header" /><text x="1637" y="68" class="text">63</text><text x="1637" y="75" class="text">H</text><rect x="50" y="80" width="24" height="19" class="header" /><text x="62" y="88" class="text">64</text><text x="62" y="95" class="text">H</text><rect x="75" y="80" width="24" height="19" class="header" /><text x="87" y="88" class="text">65</text><text x="87" y="95" class="text">H</text><rect x="100" y="80" width="24" height="19" class="granule3" /><text x="112" y="88" class="text">66</text><text x="112" y="95" class="granule-text">3</text><rect x="125" y="80" width="24" height="19" class="granule3" /><text x="137" y="88" class="text">67</text><text x="137" y="95" class="granule-text">3</text><rect x="150" y="80" width="24" height="19" class="granule3" /><text x="162" y="88" class="text">68</text><text x="162" y="95" class="granule-text">3</text><rect x="175" y="80" width="24" height="19" class="granule3" /><text x="187" y="88" class="text">69</text><text x="187" y="95" class="granule-text">3</text><rect x="200" y="80" width="24" height="19" class="granule3" /><text x="212" y="88" class="text">70</text><text x="212" y="95" class="granule-text">3</text><rect x="225" y="80" width="24" height="19" class="granule3" /><text x="237" y="88" class="text">71</text><text x="237" y="95" class="granule-text">3</text><rect x="250" y="80" width="24" height="19" class="granule3" /><text x="262" y="88" class="text">72</text><text x="262" y="95" class="granule-text">3</text><rect x="275" y="80" width="24" height="19" class="granule3" /><text x="287" y="88" class="text">73</text><text x="287" y="95" class="granule-text">3</text><rect x="300" y="80" width="24" height="19" class="granule3" /><text x="312" y="88" class="text">74</text><text x="312" y="95" class="granule-text">3</text><rect x="325" y="80" width="24" height="19" class="granule3" /><text x="337" y="88" class="text">75</text><text x="337" y="95" class="granule-text">3</text><rect x="350" y="80" width="24" height="19" class="granule3" /><text x="362" y="88" class="text">76</text><text x="362" y="95" class="granule-text">3</text><rect x="375" y="80" width="24" height="19" class="granule3" /><text x="387" y="88" class="text">77</text><text x="387" y="95" class="granule-text">3</text><rect x="400" y="80" width="24" height="19" class="granule3" /><text x="412" y="88" class="text">78</text><text x="412" y="95" class="granule-text">3</text><rect x="425" y="80" width="24" height="19" class="granule3" /><text x="437" y="88" class="text">79</text><text x="437" y="95" class="granule-text">3</text><rect x="450" y="80" width="24" height="19" class="granule3" /><text x="462" y="88" class="text">80</text><text x="462" y="95" class="granule-text">3</text><rect x="475" y="80" width="24" height="19" class="granule3" /><text x="487" y="88" class="text">81</text><text x="487" y="95" class="granule-text">3</text><rect x="500" y="80" width="24" height="19" class="granule3" /><text x="512" y="88" class="text">82</text><text x="512" y="95" class="granule-text">3</text><rect x="525" y="80" width="24" height="19" class="granule3" /><text x="537" y="88" class="text">83</text><text x="537" y="95" class="granule-text">3</text><rect x="550" y="80" width="24" height="19" class="granule3" /><text x="562" y="88" class="text">84</text><text x="562" y="95" class="granule-text">3</text><rect x="575" y="80" width="24" height="19" class="granule3" /><text x="587" y="88" class="text">85</text><text x="587" y="95" class="granule-text">3</text><rect x="600" y="80" width="24" height="19" class="granule4" /><text x="612" y="88" class="text">86</text><text x="612" y="95" class="granule-text">4</text><rect x="625" y="80" width="24" height="19" class="granule4" /><text x="637" y="88" class="text">87</text><text x="637" y="95" class="granule-text">4</text><rect x="650" y="80" width="24" height="19" class="granule4" /><text x="662" y="88" class="text">88</text><text x="662" y="95" class="granule-text">4</text><rect x="675" y="80" width="24" height="19" class="granule4" /><text x="687" y="88" class="text">89</text><text x="687" y="95" class="granule-text">4</text><rect x="700" y="80" width="24" height="19" class="granule4" /><text x="712" y="88" class="text">90</text><text x="712" y="95" class="granule-text">4</text><rect x="725" y="80" width="24" height="19" class="granule4" /><text x="737" y="88" class="text">91</text><text x="737" y="95" class="granule-text">4</text><rect x="750" y="80" width="24" height="19" class="granule4" /><text x="762" y="88" class="text">92</text><text x="762" y="95" class="granule-text">4</text><rect x="775" y="80" width="24" height="19" class="granule4" /><text x="787" y="88" class="text">93</text><text x="787" y="95" class="granule-text">4</text><rect x="800" y="80" width="24" height="19" class="granule4" /><text x="812" y="88" class="text">94</text><text x="812" y="95" class="granule-text">4</text><rect x="825" y="80" width="24" height="19" class="granule4" /><text x="837" y="88" class="text">95</text><text x="837" y="95" class="granule-text">4</text><rect x="850" y="80" width="24" height="19" class="granule4" /><text x="862" y="88" class="text">96</text><text x="862" y="95" class="granule-text">4</text><rect x="875" y="80" width="24" height="19" class="granule4" /><text x="887" y="88" class="text">97</text><text x="887" y="95" class="granule-text">4</text><rect x="900" y="80" width="24" height="19" class="granule4" /><text x="912" y="88" class="text">98</text><text x="912" y="95" class="granule-text">4</text><rect x="925" y="80" width="24" height="19" class="granule4" /><text x="937" y="88" class="text">99</text><text x="937" y="95" class="granule-text">4</text><rect x="950" y="80" width="24" height="19" class="granule4" /><text x="962" y="88" class="text">100</text><text x="962" y="95" class="granule-text">4</text><rect x="975" y="80" width="24" height="19" class="granule4" /><text x="987" y="88" class="text">101</text><text x="987" y="95" class="granule-text">4</text><rect x="1000" y="80" width="24" height="19" class="granule4" /><text x="1012" y="88" class="text">102</text><text x="1012" y="95" class="granule-text">4</text><rect x="1025" y="80" width="24" height="19" class="granule4" /><text x="1037" y="88" class="text">103</text><text x="1037" y="95" class="granule-text">4</text><rect x="1050" y="80" width="24" height="19" class="granule4" /><text x="1062" y="88" class="text">104</text><text x="1062" y="95" class="granule-text">4</text><rect x="1075" y="80" width="24" height="19" class="granule4" /><text x="1087" y="88" class="text">105</text><text x="1087" y="95" class="granule-text">4</text><rect x="1100" y="80" width="24" height="19" class="granule5" /><text x="1112" y="88" class="text">106</text><text x="1112" y="95" class="granule-text">5</text><rect x="1125" y="80" width="24" height="19" class="granule5" /><text x="1137" y="88" class="text">107</text><text x="1137" y="95" class="granule-text">5</text><rect x="1150" y="80" width="24" height="19" class="granule5" /><text x="1162" y="88" class="text">108</text><text x="1162" y="95" class="granule-text">5</text><rect x="1175" y="80" width="24" height="19" class="granule5" /><text x="1187" y="88" class="text">109</text><text x="1187" y="95" class="granule-text">5</text><rect x="1200" y="80" width="24" height="19" class="granule5" /><text x="1212" y="88" class="text">110</text><text x="1212" y="95" class="granule-text">5</text><rect x="1225" y="80" width="24" height="19" class="granule5" /><text x="1237" y="88" class="text">111</text><text x="1237" y="95" class="granule-text">5</text><rect x="1250" y="80" width="24" height="19" class="granule5" /><text x="1262" y="88" class="text">112</text><text x="1262" y="95" class="granule-text">5</text><rect x="1275" y="80" width="24" height="19" class="granule5" /><text x="1287" y="88" class="text">113</text><text x="1287" y="95" class="granule-text">5</text><rect x="1300" y="80" width="24" height="19" class="granule5" /><text x="1312" y="88" class="text">114</text><text x="1312" y="95" class="granule-text">5</text><rect x="1325" y="80" width="24" height="19" class="granule5" /><text x="1337" y="88" class="text">115</text><text x="1337" y="95" class="granule-text">5</text><rect x="1350" y="80" width="24" height="19" class="granule5" /><text x="1362" y="88" class="text">116</text><text x="1362" y="95" class="granule-text">5</text><rect x="1375" y="80" width="24" height="19" class="granule5" /><text x="1387" y="88" class="text">117</text><text x="1387" y="95" class="granule-text">5</text><rect x="1400" y="80" width="24" height="19" class="granule5" /><text x="1412" y="88" class="text">118</text><text x="1412" y="95" class="granule-text">5</text><rect x="1425" y="80" width="24" height="19" class="granule5" /><text x="1437" y="88" class="text">119</text><text x="1437" y="95" class="granule-text">5</text><rect x="1450" y="80" width="24" height="19" class="granule5" /><text x="1462" y="88" class="text">120</text><text x="1462" y="95" class="granule-text">5</text><rect x="1475" y="80" width="24" height="19" class="granule5" /><text x="1487" y="88" class="text">121</text><text x="1487" y="95" class="granule-text">5</text><rect x="1500" y="80" width="24" height="19" class="granule5" /><text x="1512" y="88" class="text">122</text><text x="1512" y="95" class="granule-text">5</text><rect x="1525" y="80" width="24" height="19" class="granule5" /><text x="1537" y="88" class="text">123</text><text x="1537" y="95" class="granule-text">5</text><rect x="1550" y="80" width="24" height="19" class="granule5" /><text x="1562" y="88" class="text">124</text><text x="1562" y="95" class="granule-text">5</text><rect x="1575" y="80" width="24" height="19" class="granule5" /><text x="1587" y="88" class="text">125</text><text x="1587" y="95" class="granule-text">5</text><rect x="1600" y="80" width="24" height="19" class="header" /><text x="1612" y="88" class="text">126</text><text x="1612" y="95" class="text">H</text><rect x="1625" y="80" width="24" height="19" class="header" /><text x="1637" y="88" class="text">127</text><text x="1637" y="95" class="text">H</text><rect x="50" y="100" width="24" height="19" class="header" /><text x="62" y="108" class="text">128</text><text x="62" y="115" class="text">H</text><rect x="75" y="100" width="24" height="19" class="header" /><text x="87" y="108" class="text">129</text><text x="87" y="115" class="text">H</text><rect x="100" y="100" width="24" height="19" class="granule6" /><text x="112" y="108" class="text">130</text><text x="112" y="115" class="granule-text">6</text><rect x="125" y="100" width="24" height="19" class="granule6" /><text x="137" y="108" class="text">131</text><text x="137" y="115" class="granule-text">6</text><rect x="150" y="100" width="24" height="19" class="granule6" /><text x="162" y="108" class="text">132</text><text x="162" y="115" class="granule-text">6</text><rect x="175" y="100" width="24" height="19" class="granule6" /><text x="187" y="108" class="text">133</text><text x="187" y="115" class="granule-text">6</text><rect x="200" y="100" width="24" height="19" class="granule6" /><text x="212" y="108" class="text">134</text><text x="212" y="115" class="granule-text">6</text><rect x="225" y="100" width="24" height="19" class="granule6" /><text x="237" y="108" class="text">135</text><text x="237" y="115" class="granule-text">6</text><rect x="250" y="100" width="24" height="19" class="granule6" /><text x="262" y="108" class="text">136</text><text x="262" y="115" class="granule-text">6</text><rect x="275" y="100" width="24" height="19" class="granule6" /><text x="287" y="108" class="text">137</text><text x="287" y="115" class="granule-text">6</text><rect x="300" y="100" width="24" height="19" class="granule6" /><text x="312" y="108" class="text">138</text><text x="312" y="115" class="granule-text">6</text><rect x="325" y="100" width="24" height="19" class="granule6" /><text x="337" y="108" class="text">139</text><text x="337" y="115" class="granule-text">6</text><rect x="350" y="100" width="24" height="19" class="granule6" /><text x="362" y="108" class="text">140</text><text x="362" y="115" class="granule-text">6</text><rect x="375" y="100" width="24" height="19" class="granule6" /><text x="387" y="108" class="text">141</text><text x="387" y="115" class="granule-text">6</text><rect x="400" y="100" width="24" height="19" class="granule6" /><text x="412" y="108" class="text">142</text><text x="412" y="115" class="granule-text">6</text><rect x="425" y="100" width="24" height="19" class="granule6" /><text x="437" y="108" class="text">143</text><text x="437" y="115" class="granule-text">6</text><rect x="450" y="100" width="24" height="19" class="granule6" /><text x="462" y="108" class="text">144</text><text x="462" y="115" class="granule-text">6</text><rect x="475" y="100" width="24" height="19" class="granule6" /><text x="487" y="108" class="text">145</text><text x="487" y="115" class="granule-text">6</text><rect x="500" y="100" width="24" height="19" class="granule6" /><text x="512" y="108" class="text">146</text><text x="512" y="115" class="granule-text">6</text><rect x="525" y="100" width="24" height="19" class="granule6" /><text x="537" y="108" class="text">147</text><text x="537" y="115" class="granule-text">6</text><rect x="550" y="100" width="24" height="19" class="granule6" /><text x="562" y="108" class="text">148</text><text x="562" y="115" class="granule-text">6</text><rect x="575" y="100" width="24" height="19" class="granule6" /><text x="587" y="108" class="text">149</text><text x="587" y="115" class="granule-text">6</text><rect x="600" y="100" width="24" height="19" class="granule7" /><text x="612" y="108" class="text">150</text><text x="612" y="115" class="granule-text">7</text><rect x="625" y="100" width="24" height="19" class="granule7" /><text x="637" y="108" class="text">151</text><text x="637" y="115" class="granule-text">7</text><rect x="650" y="100" width="24" height="19" class="granule7" /><text x="662" y="108" class="text">152</text><text x="662" y="115" class="granule-text">7</text><rect x="675" y="100" width="24" height="19" class="granule7" /><text x="687" y="108" class="text">153</text><text x="687" y="115" class="granule-text">7</text><rect x="700" y="100" width="24" height="19" class="granule7" /><text x="712" y="108" class="text">154</text><text x="712" y="115" class="granule-text">7</text><rect x="725" y="100" width="24" height="19" class="granule7" /><text x="737" y="108" class="text">155</text><text x="737" y="115" class="granule-text">7</text><rect x="750" y="100" width="24" height="19" class="granule7" /><text x="762" y="108" class="text">156</text><text x="762" y="115" class="granule-text">7</text><rect x="775" y="100" width="24" height="19" class="granule7" /><text x="787" y="108" class="text">157</text><text x="787" y="115" class="granule-text">7</text><rect x="800" y="100" width="24" height="19" class="granule7" /><text x="812" y="108" class="text">158</text><text x="812" y="115" class="granule-text">7</text><rect x="825" y="100" width="24" height="19" class="granule7" /><text x="837" y="108" class="text">159</text><text x="837" y="115" class="granule-text">7</text><rect x="850" y="100" width="24" height="19" class="granule7" /><text x="862" y="108" class="text">160</text><text x="862" y="115" class="granule-text">7</text><rect x="875" y="100" width="24" height="19" class="granule7" /><text x="887" y="108" class="text">161</text><text x="887" y="115" class="granule-text">7</text><rect x="900" y="100" width="24" height="19" class="granule7" /><text x="912" y="108" class="text">162</text><text x="912" y="115" class="granule-text">7</text><rect x="925" y="100" width="24" height="19" class="granule7" /><text x="937" y="108" class="text">163</text><text x="937" y="115" class="granule-text">7</text><rect x="950" y="100" width="24" height="19" class="granule7" /><text x="962" y="108" class="text">164</text><text x="962" y="115" class="granule-text">7</text><rect x="975" y="100" width="24" height="19" class="granule7" /><text x="987" y="108" class="text">165</text><text x="987" y="115" class="granule-text">7</text><rect x="1000" y="100" width="24" height="19" class="granule7" /><text x="1012" y="108" class="text">166</text><text x="1012" y="115" class="granule-text">7</text><rect x="1025" y="100" width="24" height="19" class="granule7" /><text x="1037" y="108" class="text">167</text><text x="1037" y="115" class="granule-text">7</text><rect x="1050" y="100" width="24" height="19" class="granule7" /><text x="1062" y="108" class="text">168</text><text x="1062" y="115" class="granule-text">7</text><rect x="1075" y="100" width="24" height="19" class="granule7" /><text x="1087" y="108" class="text">169</text><text x="1087" y="115" class="granule-text">7</text><rect x="1100" y="100" width="24" height="19" class="granule0" /><text x="1112" y="108" class="text">170</text><text x="1112" y="115" class="granule-text">8</text><rect x="1125" y="100" width="24" height="19" class="granule0" /><text x="1137" y="108" class="text">171</text><text x="1137" y="115" class="granule-text">8</text><rect x="1150" y="100" width="24" height="19" class="granule0" /><text x="1162" y="108" class="text">172</text><text x="1162" y="115" class="granule-text">8</text><rect x="1175" y="100" width="24" height="19" class="granule0" /><text x="1187" y="108" class="text">173</text><text x="1187" y="115" class="granule-text">8</text><rect x="1200" y="100" width="24" height="19" class="granule0" /><text x="1212" y="108" class="text">174</text><text x="1212" y="115" class="granule-text">8</text><rect x="1225" y="100" width="24" height="19" class="granule0" /><text x="1237" y="108" class="text">175</text><text x="1237" y="115" class="granule-text">8</text><rect x="1250" y="100" width="24" height="19" class="granule0" /><text x="1262" y="108" class="text">176</text><text x="1262" y="115" class="granule-text">8</text><rect x="1275" y="100" width="24" height="19" class="granule0" /><text x="1287" y="108" class="text">177</text><text x="1287" y="115" class="granule-text">8</text><rect x="1300" y="100" width="24" height="19" class="granule0" /><text x="1312" y="108" class="text">178</text><text x="1312" y="115" class="granule-text">8</text><rect x="1325" y="100" width="24" height="19" class="granule0" /><text x="1337" y="108" class="text">179</text><text x="1337" y="115" class="granule-text">8</text><rect x="1350" y="100" width="24" height="19" class="granule0" /><text x="1362" y="108" class="text">180</text><text x="1362" y="115" class="granule-text">8</text><rect x="1375" y="100" width="24" height="19" class="granule0" /><text x="1387" y="108" class="text">181</text><text x="1387" y="115" class="granule-text">8</text><rect x="1400" y="100" width="24" height="19" class="granule0" /><text x="1412" y="108" class="text">182</text><text x="1412" y="115" class="granule-text">8</text><rect x="1425" y="100" width="24" height="19" class="granule0" /><text x="1437" y="108" class="text">183</text><text x="1437" y="115" class="granule-text">8</text><rect x="1450" y="100" width="24" height="19" class="granule0" /><text x="1462" y="108" class="text">184</text><text x="1462" y="115" class="granule-text">8</text><rect x="1475" y="100" width="24" height="19" class="granule0" /><text x="1487" y="108" class="text">185</text><text x="1487" y="115" class="granule-text">8</text><rect x="1500" y="100" width="24" height="19" class="granule0" /><text x="1512" y="108" class="text">186</text><text x="1512" y="115" class="granule-text">8</text><rect x="1525" y="100" width="24" height="19" class="granule0" /><text x="1537" y="108" class="text">187</text><text x="1537" y="115" class="granule-text">8</text><rect x="1550" y="100" width="24" height="19" class="granule0" /><text x="1562" y="108" class="text">188</text><text x="1562" y="115" class="granule-text">8</text><rect x="1575" y="100" width="24" height="19" class="granule0" /><text x="1587" y="108" class="text">189</text><text x="1587" y="115" class="granule-text">8</text><rect x="1600" y="100" width="24" height="19" class="header" /><text x="1612" y="108" class="text">190</text><text x="1612" y="115" class="text">H</text><rect x="1625" y="100" width="24" height="19" class="header" /><text x="1637" y="108" class="text">191</text><text x="1637" y="115" class="text">H</text><rect x="50" y="120" width="24" height="19" class="header" /><text x="62" y="128" class="text">192</text><text x="62" y="135" class="text">H</text><rect x="75" y="120" width="24" height="19" class="header" /><text x="87" y="128" class="text">193</text><text x="87" y="135" class="text">H</text><rect x="100" y="120" width="24" height="19" class="granule1" /><text x="112" y="128" class="text">194</text><text x="112" y="135" class="granule-text">9</text><rect x="125" y="120" width="24" height="19" class="granule1" /><text x="137" y="128" class="text">195</text><text x="137" y="135" class="granule-text">9</text><rect x="150" y="120" width="24" height="19" class="granule1" /><text x="162" y="128" class="text">196</text><text x="162" y="135" class="granule-text">9</text><rect x="175" y="120" width="24" height="19" class="granule1" /><text x="187" y="128" class="text">197</text><text x="187" y="135" class="granule-text">9</text><rect x="200" y="120" width="24" height="19" class="granule1" /><text x="212" y="128" class="text">198</text><text x="212" y="135" class="granule-text">9</text><rect x="225" y="120" width="24" height="19" class="granule1" /><text x="237" y="128" class="text">199</text><text x="237" y="135" class="granule-text">9</text><rect x="250" y="120" width="24" height="19" class="granule1" /><text x="262" y="128" class="text">200</text><text x="262" y="135" class="granule-text">9</text><rect x="275" y="120" width="24" height="19" class="granule1" /><text x="287" y="128" class="text">201</text><text x="287" y="135" class="granule-text">9</text><rect x="300" y="120" width="24" height="19" class="granule1" /><text x="312" y="128" class="text">202</text><text x="312" y="135" class="granule-text">9</text><rect x="325" y="120" width="24" height="19" class="granule1" /><text x="337" y="128" class="text">203</text><text x="337" y="135" class="granule-text">9</text><rect x="350" y="120" width="24" height="19" class="granule1" /><text x="362" y="128" class="text">204</text><text x="362" y="135" class="granule-text">9</text><rect x="375" y="120" width="24" height="19" class="granule1" /><text x="387" y="128" class="text">205</text><text x="387" y="135" class="granule-text">9</text><rect x="400" y="120" width="24" height="19" class="granule1" /><text x="412" y="128" class="text">206</text><text x="412" y="135" class="granule-text">9</text><rect x="425" y="120" width="24" height="19" class="granule1" /><text x="437" y="128" class="text">207</text><text x="437" y="135" class="granule-text">9</text><rect x="450" y="120" width="24" height="19" class="granule1" /><text x="462" y="128" class="text">208</text><text x="462" y="135" class="granule-text">9</text><rect x="475" y="120" width="24" height="19" class="granule1" /><text x="487" y="128" class="text">209</text><text x="487" y="135" class="granule-text">9</text><rect x="500" y="120" width="24" height="19" class="granule1" /><text x="512" y="128" class="text">210</text><text x="512" y="135" class="granule-text">9</text><rect x="525" y="120" width="24" height="19" class="granule1" /><text x="537" y="128" class="text">211</text><text x="537" y="135" class="granule-text">9</text><rect x="550" y="120" width="24" height="19" class="granule1" /><text x="562" y="128" class="text">212</text><text x="562" y="135" class="granule-text">9</text><rect x="575" y="120" width="24" height="19" class="granule1" /><text x="587" y="128" class="text">213</text><text x="587" y="135" class="granule-text">9</text><rect x="600" y="120" width="24" height="19" class="granule2" /><text x="612" y="128" class="text">214</text><text x="612" y="135" class="granule-text">10</text><rect x="625" y="120" width="24" height="19" class="granule2" /><text x="637" y="128" class="text">215</text><text x="637" y="135" class="granule-text">10</text><rect x="650" y="120" width="24" height="19" class="granule2" /><text x="662" y="128" class="text">216</text><text x="662" y="135" class="granule-text">10</text><rect x="675" y="120" width="24" height="19" class="granule2" /><text x="687" y="128" class="text">217</text><text x="687" y="135" class="granule-text">10</text><rect x="700" y="120" width="24" height="19" class="granule2" /><text x="712" y="128" class="text">218</text><text x="712" y="135" class="granule-text">10</text><rect x="725" y="120" width="24" height="19" class="granule2" /><text x="737" y="128" class="text">219</text><text x="737" y="135" class="granule-text">10</text><rect x="750" y="120" width="24" height="19" class="granule2" /><text x="762" y="128" class="text">220</text><text x="762" y="135" class="granule-text">10</text><rect x="775" y="120" width="24" height="19" class="granule2" /><text x="787" y="128" class="text">221</text><text x="787" y="135" class="granule-text">10</text><rect x="800" y="120" width="24" height="19" class="granule2" /><text x="812" y="128" class="text">222</text><text x="812" y="135" class="granule-text">10</text><rect x="825" y="120" width="24" height="19" class="granule2" /><text x="837" y="128" class="text">223</text><text x="837" y="135" class="granule-text">10</text><rect x="850" y="120" width="24" height="19" class="granule2" /><text x="862" y="128" class="text">224</text><text x="862" y="135" class="granule-text">10</text><rect x="875" y="120" width="24" height="19" class="granule2" /><text x="887" y="128" class="text">225</text><text x="887" y="135" class="granule-text">10</text><rect x="900" y="120" width="24" height="19" class="granule2" /><text x="912" y="128" class="text">226</text><text x="912" y="135" class="granule-text">10</text><rect x="925" y="120" width="24" height="19" class="granule2" /><text x="937" y="128" class="text">227</text><text x="937" y="135" class="granule-text">10</text><rect x="950" y="120" width="24" height="19" class="granule2" /><text x="962" y="128" class="text">228</text><text x="962" y="135" class="granule-text">10</text><rect x="975" y="120" width="24" height="19" class="granule2" /><text x="987" y="128" class="text">229</text><text x="987" y="135" class="granule-text">10</text><rect x="1000" y="120" width="24" height="19" class="granule2" /><text x="1012" y="128" class="text">230</text><text x="1012" y="135" class="granule-text">10</text><rect x="1025" y="120" width="24" height="19" class="granule2" /><text x="1037" y="128" class="text">231</text><text x="1037" y="135" class="granule-text">10</text><rect x="1050" y="120" width="24" height="19" class="granule2" /><text x="1062" y="128" class="text">232</text><text x="1062" y="135" class="granule-text">10</text><rect x="1075" y="120" width="24" height="19" class="granule2" /><text x="1087" y="128" class="text">233</text><text x="1087" y="135" class="granule-text">10</text><rect x="1100" y="120" width="24" height="19" class="granule3" /><text x="1112" y="128" class="text">234</text><text x="1112" y="135" class="granule-text">11</text><rect x="1125" y="120" width="24" height="19" class="granule3" /><text x="1137" y="128" class="text">235</text><text x="1137" y="135" class="granule-text">11</text><rect x="1150" y="120" width="24" height="19" class="granule3" /><text x="1162" y="128" class="text">236</text><text x="1162" y="135" class="granule-text">11</text><rect x="1175" y="120" width="24" height="19" class="granule3" /><text x="1187" y="128" class="text">237</text><text x="1187" y="135" class="granule-text">11</text><rect x="1200" y="120" width="24" height="19" class="granule3" /><text x="1212" y="128" class="text">238</text><text x="1212" y="135" class="granule-text">11</text><rect x="1225" y="120" width="24" height="19" class="granule3" /><text x="1237" y="128" class="text">239</text><text x="1237" y="135" class="granule-text">11</text><rect x="1250" y="120" width="24" height="19" class="granule3" /><text x="1262" y="128" class="text">240</text><text x="1262" y="135" class="granule-text">11</text><rect x="1275" y="120" width="24" height="19" class="granule3" /><text x="1287" y="128" class="text">241</text><text x="1287" y="135" class="granule-text">11</text><rect x="1300" y="120" width="24" height="19" class="granule3" /><text x="1312" y="128" class="text">242</text><text x="1312" y="135" class="granule-text">11</text><rect x="1325" y="120" width="24" height="19" class="granule3" /><text x="1337" y="128" class="text">243</text><text x="1337" y="135" class="granule-text">11</text><rect x="1350" y="120" width="24" height="19" class="granule3" /><text x="1362" y="128" class="text">244</text><text x="1362" y="135" class="granule-text">11</text><rect x="1375" y="120" width="24" height="19" class="granule3" /><text x="1387" y="128" class="text">245</text><text x="1387" y="135" class="granule-text">11</text><rect x="1400" y="120" width="24" height="19" class="granule3" /><text x="1412" y="128" class="text">246</text><text x="1412" y="135" class="granule-text">11</text><rect x="1425" y="120" width="24" height="19" class="granule3" /><text x="1437" y="128" class="text">247</text><text x="1437" y="135" class="granule-text">11</text><rect x="1450" y="120" width="24" height="19" class="granule3" /><text x="1462" y="128" class="text">248</text><text x="1462" y="135" class="granule-text">11</text><rect x="1475" y="120" width="24" height="19" class="granule3" /><text x="1487" y="128" class="text">249</text><text x="1487" y="135" class="granule-text">11</text><rect x="1500" y="120" width="24" height="19" class="granule3" /><text x="1512" y="128" class="text">250</text><text x="1512" y="135" class="granule-text">11</text><rect x="1525" y="120" width="24" height="19" class="granule3" /><text x="1537" y="128" class="text">251</text><text x="1537" y="135" class="granule-text">11</text><rect x="1550" y="120" width="24" height="19" class="granule3" /><text x="1562" y="128" class="text">252</text><text x="1562" y="135" class="granule-text">11</text><rect x="1575" y="120" width="24" height="19" class="granule3" /><text x="1587" y="128" class="text">253</text><text x="1587" y="135" class="granule-text">11</text><rect x="1600" y="120" width="24" height="19" class="header" /><text x="1612" y="128" class="text">254</text><text x="1612" y="135" class="text">H</text><rect x="1625" y="120" width="24" height="19" class="header" /><text x="1637" y="128" class="text">255</text><text x="1637" y="135" class="text">H</text><text x="50" y="190" class="legend">Flit size: 256 bytes</text><text x="50" y="208" class="legend">Header positions: [0, 1, 62, 63, 64, 65, 126, 127, 128, 129, 190, 191, 192, 193, 254, 255]</text><text x="50" y="226" class="legend">Granule size: 20 bytes</text><text x="50" y="244" class="legend">Granules per flit: 12</text><text x="50" y="262" class="legend">Data capacity: 240 bytes (93.8%)</text></svg>